Coordinates
version=1
nRows=17
nColumns=40
inDegrees=yes

Units are S.I. units (second, meters, Newtons, ...)
Angles are in degrees.

endheader
time	pelvis_tilt	pelvis_list	pelvis_rotation	pelvis_tx	pelvis_ty	pelvis_tz	hip_flexion_r	hip_adduction_r	hip_rotation_r	knee_angle_r	knee_angle_r_beta	ankle_angle_r	subtalar_angle_r	mtp_angle_r	hip_flexion_l	hip_adduction_l	hip_rotation_l	knee_angle_l	knee_angle_l_beta	ankle_angle_l	subtalar_angle_l	mtp_angle_l	lumbar_extension	lumbar_bending	lumbar_rotation	arm_flex_r	arm_add_r	arm_rot_r	elbow_flex_r	pro_sup_r	wrist_flex_r	wrist_dev_r	arm_flex_l	arm_add_l	arm_rot_l	elbow_flex_l	pro_sup_l	wrist_flex_l	wrist_dev_l
     29.19500000	     -7.14627976	     -5.24470458	      1.98572148	      1.05476660	      0.91162664	      0.45259252	      5.87268649	     -3.22654507	    -11.12569952	     32.39918068	     32.39918068	     14.01194932	     -5.02620691	    -11.56785076	     32.73759269	     -6.52734999	     -1.02331678	     28.05837090	     28.05837090	      5.53623228	    -14.57258600	      4.21839202	    -12.28316924	      4.88445597	      2.70338638	     29.10153271	    -13.78696891	     13.29448887	    109.33311019	     44.18763375	      0.00000000	      0.00000000	     -5.53548782	     -9.41376535	     -9.53118768	     37.84182495	     46.02574800	      0.00000000	      0.00000000
     29.20657143	     -7.16417003	     -5.10765039	      1.80054808	      1.05452732	      0.91288958	      0.44930890	      7.80547038	     -3.98630958	    -10.60651729	     36.51992302	     36.51992302	     12.14046422	     -6.93048176	    -12.18767095	     32.08551667	     -6.32042059	     -1.39739047	     28.02854464	     28.02854464	      6.21620277	    -14.40302680	      3.95493650	    -12.29870946	      4.84736592	      2.73211996	     27.24627159	    -14.46298313	     13.34803469	    108.08475214	     44.22455822	      0.00000000	      0.00000000	     -4.91150533	     -9.42738116	     -9.41977003	     38.64803337	     46.03202734	      0.00000000	      0.00000000
     29.21814286	     -7.17937021	     -4.97671369	      1.59347665	      1.05415431	      0.91412899	      0.44629439	      9.87760517	     -4.67261047	    -10.02498285	     40.71549029	     40.71549029	     10.06660907	     -8.95675447	    -12.46458161	     31.38678571	     -6.15821463	     -1.85806669	     27.90687268	     27.90687268	      6.84339282	    -14.12449298	      3.65597152	    -12.33597515	      4.79064299	      2.75708079	     25.30078880	    -15.08860807	     13.31200398	    106.67550424	     44.26794060	      0.00000000	      0.00000000	     -4.31839809	     -9.48101465	     -9.32092447	     39.63976439	     46.03993716	      0.00000000	      0.00000000
     29.22971429	     -7.18608280	     -4.98783924	      1.38403422	      1.05369530	      0.91531367	      0.44365375	     12.02847446	     -4.99782403	     -9.23001027	     44.82314104	     44.82314104	      7.75698627	    -11.58964133	    -12.33075369	     30.70485834	     -6.19906493	     -2.38709434	     27.79052533	     27.79052533	      7.42614976	    -13.61836878	      3.18399705	    -12.35401723	      4.86826026	      2.88834901	     23.21919355	    -15.54362273	     12.65536254	    104.65224197	     44.35839787	      0.00000000	      0.00000000	     -4.02947606	     -9.65070671	     -8.93475354	     41.67568619	     46.03064333	      0.00000000	      0.00000000
     29.24128571	     -7.18206637	     -4.75213603	      1.19667027	      1.05307912	      0.91642342	      0.44095704	     14.27007346	     -5.76056207	     -8.80671701	     49.00217755	     49.00217755	      5.77100028	    -13.09956245	    -11.90239297	     29.91941779	     -5.94880221	     -2.95923009	     27.51344563	     27.51344563	      7.88425460	    -13.24133548	      2.88620017	    -12.44284645	      4.69617922	      2.68645515	     21.24761586	    -15.99578950	     12.70537732	    103.18084955	     44.39871105	      0.00000000	      0.00000000	     -3.44306399	     -9.83341498	     -8.85615725	     42.63985426	     46.04111827	      0.00000000	      0.00000000
     29.25285714	     -7.21479100	     -4.77031459	      0.98573625	      1.05234384	      0.91742660	      0.43879376	     16.66834088	     -5.98731751	     -8.15151996	     53.16844690	     53.16844690	      4.91421423	    -14.35016341	     -7.99092599	     29.19859270	     -6.03563154	     -3.57530890	     27.21396594	     27.21396594	      8.20454118	    -12.59853536	      1.88473333	    -12.46748104	      4.72918570	      2.44285597	     19.39396222	    -15.83904677	     11.51611898	    100.14445133	     44.55617493	      0.00000000	      0.00000000	     -4.01806343	    -10.47111849	     -7.46979147	     46.62540741	     45.98567340	      0.00000000	      0.00000000
     29.26442857	     -7.20095645	     -4.58554092	      0.84551361	      1.05153022	      0.91840439	      0.43645833	     18.91377934	     -6.52419359	     -7.71859233	     56.88919332	     56.88919332	      3.27345948	    -15.66764793	     -7.24398426	     28.42204912	     -5.81675220	     -4.03500965	     26.90871443	     26.90871443	      8.62466657	    -12.22349886	      1.61952631	    -12.55127505	      4.61137820	      2.28902484	     17.34996165	    -16.40891497	     11.59734002	     98.41346838	     44.60255784	      0.00000000	      0.00000000	     -3.26019718	    -10.71469254	     -7.49781289	     47.44920036	     46.01065178	      0.00000000	      0.00000000
     29.27600000	     -7.16709554	     -4.62717924	      0.70259486	      1.05066794	      0.91942355	      0.43457865	     21.20596932	     -6.63022113	     -7.22568498	     60.52166924	     60.52166924	      3.14137305	    -16.25977218	     -2.77477952	     27.65909981	     -5.93077226	     -4.64416947	     26.61826072	     26.61826072	      8.97510743	    -11.41107165	      0.75170332	    -12.61001533	      4.67236323	      2.02787608	     15.65341929	    -15.85480599	      9.81007417	     94.36410585	     44.79548078	      0.00000000	      0.00000000	     -3.37216721	    -11.27165314	     -6.74956782	     50.52089708	     46.01682670	      0.00000000	      0.00000000
     29.28757143	     -7.14925803	     -4.47781835	      0.63277638	      1.04970597	      0.92039825	      0.43242223	     23.35299449	     -7.07149433	     -6.94444339	     63.57845501	     63.57845501	      2.11680979	    -16.97188316	     -2.23072188	     26.88874966	     -5.70233446	     -4.96964790	     26.26685953	     26.26685953	      9.30273473	    -11.09584419	      0.57558667	    -12.72255107	      4.61867965	      1.77963979	     13.58213810	    -16.48411049	      9.92041461	     92.67566927	     44.83853072	      0.00000000	      0.00000000	     -2.53027515	    -11.55297201	     -6.81825880	     51.40470348	     46.04746197	      0.00000000	      0.00000000
     29.29914286	     -7.09300018	     -4.49995610	      0.53205860	      1.04875791	      0.92144429	      0.43066507	     25.48744860	     -7.19661782	     -6.64398764	     66.45272553	     66.45272553	      2.56217810	    -16.99073113	      1.72709120	     26.06876396	     -5.72731292	     -5.40256829	     25.88100193	     25.88100193	      9.57649768	    -10.54254576	     -0.16434270	    -12.81509412	      4.67163255	      1.49668640	     12.07540592	    -16.03143714	      8.23669981	     88.32750794	     45.03246193	      0.00000000	      0.00000000	     -2.54528896	    -12.20619518	     -5.95801970	     54.61370883	     46.07683545	      0.00000000	      0.00000000
     29.31071429	     -7.01416203	     -4.49488392	      0.44729770	      1.04782772	      0.92257271	      0.42891592	     27.40727255	     -7.38919996	     -6.47518759	     68.68043286	     68.68043286	      2.19225374	    -17.25775827	      2.41722137	     25.22207460	     -5.69077838	     -5.74832409	     25.49807779	     25.49807779	      9.94393628	    -10.05182423	     -0.50095314	    -12.97610463	      4.75497561	      1.48213285	     10.20552700	    -16.37022645	      7.53635530	     85.26492668	     45.14660694	      0.00000000	      0.00000000	     -1.70554583	    -12.48352317	     -5.84983367	     56.14779312	     46.12258779	      0.00000000	      0.00000000
     29.32228571	     -6.98396662	     -4.45874856	      0.34823115	      1.04681195	      0.92365294	      0.42728519	     29.30649847	     -7.58717960	     -6.29518755	     70.47657519	     70.47657519	      1.88915795	    -17.39334639	      2.69833346	     24.40623721	     -5.61757710	     -6.10281252	     25.05740221	     25.05740221	     10.25743310	     -9.58917945	     -0.74196107	    -13.07905542	      4.81374197	      1.38862969	      8.40501784	    -16.63850190	      6.81344272	     82.32844944	     45.25653049	      0.00000000	      0.00000000	     -0.88199612	    -12.77185506	     -5.76154957	     57.64639631	     46.15908594	      0.00000000	      0.00000000
     29.33385714	     -6.90272287	     -4.50872781	      0.26841799	      1.04590190	      0.92479197	      0.42591586	     31.01658911	     -7.67178843	     -6.23607472	     71.78070993	     71.78070993	      1.83029912	    -17.39571863	      3.16714581	     23.53299473	     -5.65769313	     -6.45721922	     24.61424663	     24.61424663	     10.57886769	     -9.03686343	     -1.20519794	    -13.21628303	      4.89960724	      0.94895919	      7.16057442	    -15.94078015	      4.91728619	     77.84816963	     45.45159299	      0.00000000	      0.00000000	     -0.61972072	    -13.48437065	     -5.19093769	     59.98373859	     46.19747253	      0.00000000	      0.00000000
     29.34542857	     -6.82446723	     -4.53328772	      0.12138606	      1.04495588	      0.92596390	      0.42464650	     32.61767682	     -7.76344868	     -6.15894975	     72.56910617	     72.56910617	      1.67167161	    -17.29471758	      3.05036199	     22.62541510	     -5.66363269	     -6.80032963	     24.11667368	     24.11667368	     10.90660285	     -8.60324508	     -1.39085936	    -13.39482984	      4.99277422	      1.09139081	      5.31604797	    -16.47332639	      4.39744906	     74.99867796	     45.55000881	      0.00000000	      0.00000000	      0.40088863	    -13.67545254	     -5.20421464	     61.46623833	     46.24397388	      0.00000000	      0.00000000
     29.35700000	     -6.73674889	     -4.60168741	     -0.02326617	      1.04405498	      0.92709932	      0.42362812	     34.04818674	     -7.79347711	     -6.15288429	     72.83274365	     72.83274365	      1.46858774	    -17.16565972	      2.60336624	     21.71369232	     -5.75759708	     -7.23377791	     23.63222898	     23.63222898	     11.20859953	     -7.97563337	     -1.83432133	    -13.54877417	      5.10548411	      0.73485155	      4.41452753	    -15.82799132	      2.40077815	     69.93068122	     45.76304222	      0.00000000	      0.00000000	      0.76426118	    -14.38697405	     -4.65542286	     63.76831231	     46.29501385	      0.00000000	      0.00000000
     29.36857143	     -6.63475020	     -4.61786094	     -0.24251530	      1.04315308	      0.92821643	      0.42271794	     35.35128387	     -7.86088498	     -6.12724908	     72.61877269	     72.61877269	      1.34173853	    -16.87851742	      2.34730856	     20.73002089	     -5.77752845	     -7.65057228	     23.06916865	     23.06916865	     11.53358758	     -7.53939483	     -1.98573312	    -13.76560459	      5.16887950	      1.02050347	      2.63653832	    -16.41554479	      1.93081188	     67.04587358	     45.85992108	      0.00000000	      0.00000000	      1.83505878	    -14.52513621	     -4.74565484	     65.32297127	     46.35113891	      0.00000000	      0.00000000
     29.38014286	     -6.55626565	     -4.66422070	     -0.45418488	      1.04227275	      0.92924253	      0.42202781	     36.47314266	     -7.85836867	     -6.13182161	     71.83077046	     71.83077046	      1.06818167	    -16.63311487	      1.65243280	     19.81960505	     -5.88320249	     -8.19443379	     22.59701373	     22.59701373	     11.83205531	     -6.83144691	     -2.41947317	    -13.92126404	      5.22720537	      0.72209755	      2.05562806	    -15.92732099	      0.09080059	     61.62161496	     46.08236081	      0.00000000	      0.00000000	      2.24673949	    -15.22789797	     -4.26557066	     67.59370328	     46.40454282	      0.00000000	      0.00000000
